HIERARCHY
ROOT Hips
{
	OFFSET 0.00 0.00 0.00
	CHANNELS 6 Xposition Yposition Zposition Xrotation Yrotation Zrotation
	JOINT Spine
	{
		OFFSET 0.00000 5.19526 0.00000
		CHANNELS 3 Xrotation Yrotation Zrotation
		JOINT Head
		{
			OFFSET 0.00000 15.65388 0.00000
			CHANNELS 3 Xrotation Yrotation Zrotation
			End Site
			{
				OFFSET 0.00000 4.52755 0.00000
			}
		}
		JOINT LeftShoulder
		{
			OFFSET 0.00000 10.32977 0.00000
			CHANNELS 3 Xrotation Yrotation Zrotation
			JOINT LeftArm
			{
				OFFSET 6.99601 0.00000 0.00000
				CHANNELS 3 Xrotation Yrotation Zrotation
				JOINT LeftForeArm
				{
					OFFSET 10.20930 0.00000 0.00000
					CHANNELS 3 Yrotation Zrotation Xrotation
					JOINT LeftHand
					{
						OFFSET 8.56316 0.00000 0.00000
						CHANNELS 3 Xrotation Yrotation Zrotation
						JOINT LeftHandThumb1
						{
							OFFSET 0.00000 0.00000 0.00000
							CHANNELS 3 Xrotation Zrotation Yrotation
							End Site
							{
								OFFSET 0.00000 0.00000 3.93700
							}
						}
						End Site
						{
							OFFSET 3.93700 0.00000 0.00000
						}
					}
				}
			}
		}
		JOINT RightShoulder
		{
			OFFSET 0.00000 10.32977 0.00000
			CHANNELS 3 Xrotation Yrotation Zrotation
			JOINT RightArm
			{
				OFFSET -6.99601 0.00000 0.00000
				CHANNELS 3 Xrotation Yrotation Zrotation
				JOINT RightForeArm
				{
					OFFSET -10.20930 0.00000 0.00000
					CHANNELS 3 Yrotation Zrotation Xrotation
					JOINT RightHand
					{
						OFFSET -8.56316 0.00000 0.00000
						CHANNELS 3 Xrotation Yrotation Zrotation
						JOINT RightHandThumb1
						{
							OFFSET 0.00000 0.00000 0.00000
							CHANNELS 3 Xrotation Zrotation Yrotation
							End Site
							{
								OFFSET 0.00000 0.00000 3.93700
							}
						}
						End Site
						{
							OFFSET -3.93700 0.00000 0.00000
						}
					}
				}
			}
		}
	}
	JOINT LeftUpLeg
	{
		OFFSET 3.35136 0.00000 0.00000
		CHANNELS 3 Xrotation Yrotation Zrotation
		JOINT LeftLeg
		{
			OFFSET 0.00000 -16.34683 0.00000
			CHANNELS 3 Xrotation Yrotation Zrotation
			JOINT LeftFoot
			{
				OFFSET 0.00000 -13.95979 0.00000
				CHANNELS 3 Xrotation Yrotation Zrotation
				JOINT LeftToeBase
				{
					OFFSET 0.00000 -1.33694 4.98954
					CHANNELS 3 Xrotation Yrotation Zrotation
					End Site
					{
						OFFSET 0.00000 0.00000 2.95275
					}
				}
			}
		}
	}
	JOINT RightUpLeg
	{
		OFFSET -3.35136 0.00000 0.00000
		CHANNELS 3 Xrotation Yrotation Zrotation
		JOINT RightLeg
		{
			OFFSET 0.00000 -16.34683 0.00000
			CHANNELS 3 Xrotation Yrotation Zrotation
			JOINT RightFoot
			{
				OFFSET 0.00000 -13.95979 0.00000
				CHANNELS 3 Xrotation Yrotation Zrotation
				JOINT RightToeBase
				{
					OFFSET 0.00000 -1.33694 4.98954
					CHANNELS 3 Xrotation Yrotation Zrotation
					End Site
					{
						OFFSET 0.00000 0.00000 2.95275
					}
				}
			}
		}
	}
}
MOTION
Frames: 9
Frame Time: 0.008333
 0.3187 31.5123 -4.5151 0.5800 -26.7799 -6.5279 3.9178 -4.6035 2.5192 18.3678 -16.3808 11.7803 15.5716 20.6683 10.9564 -5.9898 35.1488 -76.5666 -107.0063 -0.0000 0.9076 -4.9245 12.1769 22.2189 33.1476 -0.0000 26.2537 1.5948 -11.7310 -7.1152 0.4254 27.2305 78.3376 20.9323 -0.0000 27.1353 3.0039 -14.6918 11.6901 32.8623 0.0000 -24.3270 -2.9397 18.7795 -5.7297 15.0902 0.0000 0.0000 -33.2806 42.9941 9.6786 9.5934 -0.0000 -0.0000 -68.2051 -31.2426 -37.3303 106.8486 0.0000 0.0000 -19.5974 -29.9311 -5.8556 0.4678 -0.0000 0.0000
 0.3233 31.5111 -4.5250 0.6293 -26.7040 -6.5024 3.9363 -4.6124 2.5048 18.6084 -15.5062 11.5715 15.5274 20.6485 10.9932 -6.1092 34.9306 -76.4699 -106.9561 -0.0000 0.8946 -4.9887 12.2642 22.3393 33.1476 -0.0000 26.2537 1.5181 -11.6994 -7.1450 0.4246 27.2052 78.2799 20.9423 -0.0000 27.1429 3.0004 -14.7549 11.6291 32.8623 0.0000 -24.3270 -3.0134 18.7724 -5.7311 15.1311 0.0000 -0.0000 -33.2731 42.9540 9.6669 9.5637 -0.0000 -0.0000 -68.1993 -31.0680 -37.2915 106.5350 0.0000 -0.0000 -19.6060 -30.1101 -5.9608 0.3528 0.0000 -0.0000
 0.3292 31.5100 -4.5362 0.6802 -26.6226 -6.4864 3.9614 -4.6309 2.5183 18.8121 -14.6148 11.3265 15.5154 20.6243 10.9966 -6.2584 34.7455 -76.3710 -106.9084 -0.0000 0.9151 -5.0227 12.3202 22.3866 33.1476 -0.0000 26.2537 1.4565 -11.6679 -7.1923 0.3896 27.1490 78.2306 20.9839 -0.0000 27.1183 3.0089 -14.7844 11.6391 32.8623 0.0000 -24.3270 -3.0967 18.7130 -5.7166 15.1634 -0.0000 -0.0000 -33.2690 42.8886 9.7410 9.5632 -0.0000 -0.0000 -68.2019 -30.8785 -37.2649 106.1516 -0.0000 -0.0000 -19.6399 -30.2867 -6.0847 0.5164 -0.0000 0.0000
 0.3365 31.5077 -4.5480 0.7234 -26.5351 -6.4655 4.0014 -4.6537 2.5179 19.0154 -13.7466 11.1022 15.4502 20.5821 11.0161 -6.3243 34.5517 -76.2508 -106.8919 -0.0000 0.9254 -4.9877 12.2871 22.2981 33.1476 -0.0000 26.2537 1.4348 -11.6422 -7.2230 0.3324 27.1703 78.1521 21.0357 -0.0000 27.1281 2.9932 -14.8899 11.5021 32.8623 0.0000 -24.3270 -3.1755 18.6692 -5.7148 15.2086 -0.0000 -0.0000 -33.2715 42.8390 9.7509 9.5321 0.0000 0.0000 -68.1999 -30.6368 -37.2388 105.7029 0.0000 0.0000 -19.6293 -30.4195 -6.2296 0.4590 0.0000 -0.0000
 0.3423 31.5062 -4.5620 0.7729 -26.4596 -6.4559 4.0363 -4.6546 2.5216 19.2251 -12.9006 10.8644 15.3950 20.5400 11.0604 -6.3979 34.4091 -76.2026 -106.8643 -0.0000 0.9473 -4.9669 12.2953 22.2007 33.1476 -0.0000 26.2537 1.3845 -11.6060 -7.2473 0.2936 27.0685 78.0671 21.1315 -0.0000 27.1810 2.9987 -14.9123 11.5063 32.8623 0.0000 -24.3270 -3.2804 18.6587 -5.6868 15.2804 0.0000 0.0000 -33.2531 42.7695 9.7201 9.5652 0.0000 -0.0000 -68.1988 -30.3990 -37.1969 105.1673 -0.0000 -0.0000 -19.6803 -30.5396 -6.4223 0.6327 -0.0000 -0.0000
 0.3492 31.5042 -4.5731 0.7876 -26.3932 -6.4655 4.1042 -4.6548 2.5400 19.4444 -12.0501 10.6308 15.3496 20.5079 11.0865 -6.4722 34.2585 -76.1506 -106.8495 -0.0000 0.9248 -4.9767 12.3160 22.2070 33.1476 -0.0000 26.2537 1.3568 -11.5741 -7.2836 0.2407 27.0367 77.9756 21.2502 -0.0000 27.3127 2.9978 -14.9710 11.4599 32.8623 0.0000 -24.3270 -3.3453 18.6296 -5.6628 15.3408 0.0000 0.0000 -33.2638 42.7197 9.7197 9.5447 -0.0000 -0.0000 -68.1549 -30.1094 -37.1408 104.5635 -0.0000 0.0000 -19.6316 -30.6130 -6.5375 0.4273 -0.0000 0.0000
 0.3587 31.5012 -4.5802 0.8153 -26.3298 -6.4394 4.1538 -4.6610 2.5331 19.6799 -11.2305 10.3742 15.3340 20.5059 11.0943 -6.5626 34.1135 -76.1129 -106.8314 -0.0000 0.9106 -4.9552 12.2948 22.1541 33.1476 -0.0000 26.2537 1.3101 -11.5638 -7.3168 0.2128 27.0089 77.8437 21.3916 -0.0000 27.2946 3.0047 -14.9865 11.4742 32.8623 0.0000 -24.3270 -3.3992 18.6034 -5.6827 15.3860 0.0000 0.0000 -33.2638 42.6772 9.7611 9.4922 0.0000 -0.0000 -68.1014 -29.7473 -37.0883 103.9000 0.0000 -0.0000 -19.6505 -30.5654 -6.5611 0.5472 0.0000 -0.0000
 0.3670 31.4995 -4.5954 0.8524 -26.2784 -6.4545 4.2171 -4.6490 2.5626 19.8816 -10.4464 10.1094 15.3223 20.4965 11.1015 -6.6662 33.9877 -76.0844 -106.8380 -0.0000 0.9030 -4.9419 12.3145 22.0685 33.1476 -0.0000 26.2537 1.3187 -11.5507 -7.3296 0.1057 26.9552 77.7286 21.5424 -0.0000 27.3553 2.9930 -15.0442 11.3891 32.8623 0.0000 -24.3270 -3.5134 18.6118 -5.6369 15.4856 -0.0000 -0.0000 -33.2748 42.6574 9.6301 9.5055 0.0000 -0.0000 -68.0442 -29.3960 -36.9874 103.1188 -0.0000 -0.0000 -19.6209 -30.3675 -6.7341 0.5925 0.0000 -0.0000
 0.3720 31.4988 -4.6087 0.8709 -26.2085 -6.5013 4.2870 -4.6567 2.6090 20.1415 -9.6344 9.8299 15.2989 20.4785 11.1200 -6.7235 33.8806 -76.0716 -106.8610 -0.0000 0.9107 -4.9128 12.3094 21.9586 33.1476 -0.0000 26.2537 1.3186 -11.5102 -7.3377 0.0307 26.8773 77.6022 21.6993 -0.0000 27.4517 2.9658 -15.1020 11.2469 32.8623 0.0000 -24.3270 -3.6138 18.5940 -5.5513 15.5857 -0.0000 -0.0000 -33.2850 42.5513 9.6407 9.5840 -0.0000 0.0000 -67.9760 -29.0747 -36.8986 102.2304 -0.0000 -0.0000 -19.5007 -30.0877 -7.1293 0.3227 0.0000 -0.0000
